<?xml version="1.0" encoding="UTF-8"?>
<svg width="382px" height="255px" viewBox="0 0 382 255" version="1.1" xmlns="http://www.w3.org/2000/svg" xmlns:xlink="http://www.w3.org/1999/xlink">
    <!-- Generator: Sketch 48.2 (47327) - http://www.bohemiancoding.com/sketch -->
    <title>Page 1</title>
    <desc>Created with Sketch.</desc>
    <defs>
        <path d="M10.8553249,0.308171053 L400.855325,0.308171053 L400.855325,291.472456 L10.8553249,291.472456 C5.33247739,291.472456 0.855324884,286.995303 0.855324884,281.472456 L0.855324884,10.3081711 C0.855324884,4.78532355 5.33247739,0.308171053 10.8553249,0.308171053 Z" id="path-1"></path>
    </defs>
    <g id="Page-1" stroke="none" stroke-width="1" fill="none" fill-rule="evenodd">
        <g transform="translate(0.000000, -28.000000)">
            <mask id="mask-2" fill="white">
                <use xlink:href="#path-1"></use>
            </mask>
            <g id="Mask" opacity="0.600000024"></g>
            <g mask="url(#mask-2)" stroke="#444C5B" stroke-linecap="round" stroke-linejoin="round" stroke-width="1.5">
                <g transform="translate(-29.144675, 151.000000) scale(-1, 1) translate(29.144675, -151.000000) translate(-439.644675, 20.000000)">
                    <path d="M817.889248,151.352164 C817.889248,214.53279 738.324097,214.14716 738.324097,214.14716 L738.324097,189.962652 C738.324097,178.264576 724.287546,133.022393 671.243479,133.022393 C613.129233,133.022393 598.699454,184.309279 598.699454,201.666427 L598.699454,226.236565 L240.023691,228.673822 L240.023691,212.847796 C240.023691,200.718499 232.729015,133.487808 167.802606,133.487808 C99.3333407,133.487808 97.9731877,193.864543 97.9731877,211.221691 L97.9731877,229.426085 L30.8241822,225.716059 C30.8241822,225.716059 5.4827843,224.025366 5.4827843,204.78756 L5.4827843,190.74341 C5.4827843,190.74341 1.06228708,185.806207 1.06228708,183.205579 C1.06228708,180.601152 -0.238976601,166.302449 6.00139012,160.062082 C12.2398572,153.821715 24.2019848,126.782026 43.7057429,118.461537 C63.2076012,110.141048 151.606148,83.8783174 193.987451,82.3168009 C193.987451,82.3168009 333.093489,1.19583283 452.049886,1.19583283 C452.049886,1.19583283 600.908752,-4.00352294 656.031042,33.4367777 C656.031042,33.4367777 712.982699,63.7723687 776.938385,64.640511 C783.469399,64.7259955 796.17999,65.1572172 796.17999,82.3168009 C796.17999,82.3168009 805.539591,92.9890628 805.539591,118.469136 C805.539591,118.469136 819.921879,124.889969 819.921879,137.218731 C819.921879,151.449046 817.889248,147.782712 817.889248,151.352164 Z" id="Stroke-1"></path>
                    <path d="M193.988021,82.3171809 C193.988021,82.3171809 208.569773,86.093695 212.709121,83.8786973 C261.332691,57.8781191 362.996528,23.0346468 362.996528,23.0346468 C362.996528,23.0346468 365.859308,20.1737664 363.517034,13.6769462" id="Stroke-3"></path>
                    <path d="M5.4833542,190.74417 C15.9884464,201.405034 72.9192076,203.623831 98.0535431,202.63981" id="Stroke-15"></path>
                    <path d="M57.0616474,173.300208 C59.8921333,166.269585 49.2806604,173.862506 26.8666309,169.717459 C18.7285088,168.214831 14.9538943,170.144881 13.0181459,180.602482 C13.0181459,180.602482 51.5032568,187.105001 57.0616474,173.300208 Z" id="Stroke-17"></path>
                    <path d="M27.322928,152.522731 C27.322928,152.522731 36.4260749,122.880514 96.7458206,122.880514 C96.7458206,122.880514 93.1060816,152.522731 27.322928,152.522731 Z" id="Stroke-19"></path>
                    <path d="M27.322928,152.522731 C27.322928,152.522731 60.6029842,147.061223 96.7458206,122.880514" id="Stroke-21"></path>
                    <path d="M107.92662,122.362099 C107.92662,122.362099 173.971926,105.200615 223.370555,103.640998" id="Stroke-23"></path>
                    <path d="M636.334849,59.3079894 C632.30948,125.360894 606.631843,143.683067 592.589593,174.8849 C578.545444,206.084834 565.960229,209.278154 552.719634,209.789161 C481.909993,212.532263 338.558226,214.669375 267.575717,214.669375 C252.237903,214.669375 233.771356,146.281795 233.25275,117.680589 C232.734145,89.0812825 248.662752,79.4481319 260.29244,73.9980217 C311.642015,49.9464895 384.18794,15.2359931 469.993457,15.6254224 C469.993457,15.6254224 570.268647,11.5810568 610.011329,24.9869223 C619.331037,28.1289517 637.957154,32.6558296 636.334849,59.3079894 Z" id="Stroke-25"></path>
                    <path d="M290.182182,95.1900031 L253.011632,97.4012015 C253.011632,97.4012015 371.058094,23.0354067 466.223212,26.6751457 L445.42009,85.9576797 L326.334516,93.1098809" id="Stroke-31"></path>
                    <path d="M251.97575,159.802399 C251.97575,159.802399 253.531568,169.682505 266.532807,169.682505 C279.535945,169.682505 579.590254,158.763288 579.590254,158.763288 C579.590254,158.763288 591.820233,157.967332 591.820233,145.503696 L251.97575,159.802399 Z" id="Stroke-33"></path>
                    <path d="M302.932476,104.159604 C302.932476,104.159604 292.792118,109.036019 300.204572,121.452164 C300.204572,121.452164 284.992134,120.411153 280.248696,100.455277 C280.248696,100.455277 289.997725,99.6745187 298.189038,85.8298329 C306.376551,71.9851472 321.423718,71.5957179 324.514457,78.6795315 C326.984008,84.3348045 331.995298,104.533836 307.873479,104.682009 C302.463261,104.716203 292.533765,104.159604 298.189038,85.8298329" id="Stroke-35"></path>
                    <path d="M297.73445,100.00031 C297.73445,100.00031 303.84754,77.6394704 320.746871,75.1699188" id="Stroke-37"></path>
                    <path d="M104.945301,199.910195 C104.945301,233.839934 132.450406,261.33744 166.374446,261.33744 C200.296585,261.33744 227.794092,233.839934 227.794092,199.910195 C227.794092,165.982357 200.296585,138.481051 166.374446,138.481051 C132.450406,138.481051 104.945301,165.982357 104.945301,199.910195 Z" id="Stroke-43"></path>
                    <path d="M125.618107,199.910195 C125.618107,222.421107 143.862394,240.667294 166.375206,240.667294 C188.878519,240.667294 207.126605,222.421107 207.126605,199.910195 C207.126605,177.403083 188.878519,159.154997 166.375206,159.154997 C143.862394,159.154997 125.618107,177.403083 125.618107,199.910195 Z" id="Stroke-45"></path>
                    <path d="M130.908836,199.910195 C130.908836,219.493739 146.786153,235.376755 166.375396,235.376755 C185.958939,235.376755 201.834356,219.493739 201.834356,199.910195 C201.834356,180.324752 185.958939,164.445536 166.375396,164.445536 C146.786153,164.445536 130.908836,180.324752 130.908836,199.910195 Z" id="Stroke-47"></path>
                    <path d="M147.776633,199.910195 C147.776633,210.18163 156.104721,218.502119 166.376155,218.502119 C176.641891,218.502119 184.966179,210.18163 184.966179,199.910195 C184.966179,189.638761 176.641891,181.320172 166.376155,181.320172 C156.104721,181.320172 147.776633,189.638761 147.776633,199.910195 Z" id="Stroke-49"></path>
                    <path d="M163.714169,188.616177 C163.714169,190.08271 164.901453,191.273794 166.371786,191.273794 C167.83832,191.273794 169.029404,190.08271 169.029404,188.616177 C169.029404,187.149643 167.83832,185.958559 166.371786,185.958559 C164.901453,185.958559 163.714169,187.149643 163.714169,188.616177 Z" id="Stroke-51"></path>
                    <path d="M163.714169,211.208014 C163.714169,212.672648 164.901453,213.865631 166.371786,213.865631 C167.83832,213.865631 169.029404,212.672648 169.029404,211.208014 C169.029404,209.74148 167.83832,208.546597 166.371786,208.546597 C164.901453,208.546597 163.714169,209.74148 163.714169,211.208014 Z" id="Stroke-53"></path>
                    <path d="M152.422809,199.910195 C152.422809,201.378629 153.606294,202.564014 155.076627,202.564014 C156.545061,202.564014 157.736144,201.378629 157.736144,199.910195 C157.736144,198.445561 156.545061,197.250678 155.076627,197.250678 C153.606294,197.250678 152.422809,198.445561 152.422809,199.910195 Z" id="Stroke-55"></path>
                    <path d="M175.011797,199.910195 C175.011797,201.378629 176.199082,202.564014 177.671314,202.564014 C179.134049,202.564014 180.325132,201.378629 180.325132,199.910195 C180.325132,198.445561 179.134049,197.250678 177.671314,197.250678 C176.199082,197.250678 175.011797,198.445561 175.011797,199.910195 Z" id="Stroke-57"></path>
                    <path d="M227.794092,199.910195 L238.37707,199.910195" id="Stroke-75"></path>
                    <path d="M98.6008337,196.316808 L104.628439,196.316808" id="Stroke-81"></path>
                </g>
            </g>
        </g>
    </g>
</svg>