<?xml version="1.0" encoding="UTF-8"?>
<svg width="21px" height="16px" viewBox="0 0 21 16" version="1.1" xmlns="http://www.w3.org/2000/svg" xmlns:xlink="http://www.w3.org/1999/xlink">
    <!-- Generator: Sketch 48.2 (47327) - http://www.bohemiancoding.com/sketch -->
    <title>ic_email</title>
    <desc>Created with Sketch.</desc>
    <defs></defs>
    <g id="Desktop-2" stroke="none" stroke-width="1" fill="none" fill-rule="evenodd" transform="translate(-1455.000000, -1042.000000)" fill-opacity="0.7">
        <g id="Group-9" transform="translate(0.000000, 1020.000000)" fill="#30466D">
            <g id="ic_email" transform="translate(1455.943359, 22.000000)">
                <path d="M18,0 L2,0 C0.9,0 0.01,0.9 0.01,2 L0,14 C0,15.1 0.9,16 2,16 L18,16 C19.1,16 20,15.1 20,14 L20,2 C20,0.9 19.1,0 18,0 L18,0 Z M18,4 L10,9 L2,4 L2,2 L10,7 L18,2 L18,4 L18,4 Z" id="Shape"></path>
            </g>
        </g>
    </g>
</svg>