<?xml version="1.0" encoding="UTF-8"?>
<svg width="138px" height="45px" viewBox="0 0 138 45" version="1.1" xmlns="http://www.w3.org/2000/svg" xmlns:xlink="http://www.w3.org/1999/xlink">
    <!-- Generator: Sketch 48.2 (47327) - http://www.bohemiancoding.com/sketch -->
    <title>Group 13</title>
    <desc>Created with Sketch.</desc>
    <defs></defs>
    <g id="Page-1" stroke="none" stroke-width="1" fill="none" fill-rule="evenodd">
        <g id="Group-13">
            <g id="Page-1">
                <path d="M120.42,44.64 C110.792319,44.64 102.96,36.8076814 102.96,27.18 C102.96,17.5523186 110.792319,9.72 120.42,9.72 C130.047681,9.72 137.88,17.5523186 137.88,27.18 C137.88,28.6041751 136.725194,29.7576925 135.302308,29.7576925 L119.290971,29.7576925 C117.868084,29.7576925 116.713278,28.6041751 116.713278,27.18 C116.713278,25.7571138 117.868084,24.6023075 119.290971,24.6023075 L132.452668,24.6023075 C131.264352,19.0499579 126.320338,14.875385 120.42,14.875385 C113.634225,14.875385 108.115385,20.3955134 108.115385,27.18 C108.115385,33.9657754 113.634225,39.484615 120.42,39.484615 C123.555763,39.484615 126.54202,38.3053207 128.829722,36.1632583 C129.871109,35.1901794 131.5015,35.2443109 132.47329,36.2818321 C133.446369,37.3206422 133.392237,38.9523215 132.354716,39.9254005 C129.108112,42.9657887 124.869097,44.64 120.42,44.64" id="Fill-4" fill="#FEFEFE"></path>
                <path d="M87.4796015,44.64 C86.5039704,44.64 85.6108233,44.0883873 85.1739159,43.2158598 L70.2919977,13.4519738 C69.6566131,12.1773361 70.1721382,10.6294696 71.4454849,9.9927952 C72.7149653,9.35612075 74.2654067,9.87164662 74.9033689,11.1462843 L87.4796015,36.2987914 L100.055834,11.1462843 C100.692507,9.87164662 102.242949,9.35740957 103.513718,9.9927952 C104.788354,10.6294696 105.303879,12.1773361 104.667205,13.4519738 L89.7852871,43.2158598 C89.3483796,44.0883873 88.4565214,44.64 87.4796015,44.64" id="Fill-6" fill="#FEFEFE"></path>
                <path d="M61.38,27.1806416 C61.38,30.7584692 58.4784692,33.66 54.9006416,33.66 C51.3215308,33.66 48.42,30.7584692 48.42,27.1806416 C48.42,23.6015308 51.3215308,20.7 54.9006416,20.7 C58.4784692,20.7 61.38,23.6015308 61.38,27.1806416" id="Fill-8" fill="#0099E5"></path>
                <g id="Group-12" transform="translate(37.440000, 9.720000)" fill="#FEFEFE">
                    <path d="M5.22,17.55 C5.22,10.7515167 10.7502252,5.22 17.55,5.22 C24.3484833,5.22 29.88,10.7515167 29.88,17.55 C29.88,24.3497748 24.3484833,29.88 17.55,29.88 C10.7502252,29.88 5.22,24.3497748 5.22,17.55 M17.46,0 C7.83231859,0 0,7.83231859 0,17.46 C0,27.0876814 7.83231859,34.92 17.46,34.92 L32.3423075,34.92 C33.7651938,34.92 34.92,33.7651938 34.92,32.3423075 L34.92,17.46 C34.92,7.83231859 27.0876814,0 17.46,0" id="Fill-10"></path>
                </g>
                <path d="M17.55,39.42 C10.7502252,39.42 5.22,33.9301414 5.22,27.18 C5.22,20.4311407 10.7502252,14.94 17.55,14.94 C24.3484833,14.94 29.88,20.4311407 29.88,27.18 C29.88,33.9301414 24.3484833,39.42 17.55,39.42 M17.46,9.87394866 C12.6629143,9.87394866 8.31305824,11.8115266 5.15538496,14.939881 L5.15538496,7.47571474 L5.15538496,5.23017735 L5.15538496,2.56632844 C5.15538496,1.14843198 4.00186757,0 2.57769248,0 C1.15480623,0 0,1.14843198 0,2.56632844 L0,5.23017735 L0,7.47571474 L0,27.2569743 C0,36.842211 7.83231859,44.64 17.46,44.64 C27.0876814,44.64 34.92,36.842211 34.92,27.2569743 C34.92,17.6717376 27.0876814,9.87394866 17.46,9.87394866" id="Fill-17" fill="#FEFEFE"></path>
            </g>
        </g>
    </g>
</svg>