<?xml version="1.0" encoding="UTF-8"?>
<svg width="425px" height="425px" viewBox="0 0 425 425" version="1.1" xmlns="http://www.w3.org/2000/svg" xmlns:xlink="http://www.w3.org/1999/xlink">
    <!-- Generator: sketchtool 51 (57462) - http://www.bohemiancoding.com/sketch -->
    <title>1E5F4E3B-6D48-46C9-82AF-8CA43153E72F</title>
    <desc>Created with sketchtool.</desc>
    <defs></defs>
    <g id="icon" stroke="none" stroke-width="1" fill="none" fill-rule="evenodd">
        <g id="Icon-Bave-Store" transform="translate(-4556.000000, -303.000000)">
            <g id="Group-4" transform="translate(4556.000000, 303.000000)">
                <g id="Group-24" transform="translate(0.398378, 0.798822)">
                    <g id="ic_app_1">
                        <g id="Group-20">
                            <g id="Group-9">
                                <rect id="Rectangle" fill="#FFFFFF" x="0" y="0" width="424" height="424"></rect>
                                <g id="Group" transform="translate(99.714286, 63.000000)">
                                    <path d="M78.9585864,279.214667 C78.9585864,290.498884 69.8142603,299.64321 58.5300432,299.64321 C47.2458262,299.64321 38.0972626,290.498884 38.0972626,279.214667 C38.0972626,267.93045 47.2458262,258.786124 58.5300432,258.786124 C69.8142603,258.786124 78.9585864,267.93045 78.9585864,279.214667" id="Fill-4" fill="#F36600"></path>
                                    <path d="M186.358654,279.214667 C186.358654,290.498884 177.214328,299.64321 165.930111,299.64321 C154.650131,299.64321 145.49733,290.498884 145.49733,279.214667 C145.49733,267.93045 154.650131,258.786124 165.930111,258.786124 C177.214328,258.786124 186.358654,267.93045 186.358654,279.214667" id="Fill-6" fill="#F36600"></path>
                                    <path d="M41.2774372,100.982937 L41.2774372,78.9484166 C41.2774372,58.1046075 58.1719823,41.2100624 79.0157914,41.2100624 L145.441397,41.2100624 C166.285206,41.2100624 183.179751,58.1046075 183.179751,78.9484166 L183.179751,80.6645668 C183.179751,82.4103788 184.726405,83.7578745 186.455267,83.5205797 L221.223198,78.7365462 C222.693579,78.5331507 223.812255,77.2365039 223.752931,75.7534111 C222.07068,33.9979943 187.599367,0.543659425 145.441397,0.543659425 L79.0157914,0.543659425 C35.7179581,0.543659425 0.61103421,35.6463459 0.61103421,78.9484166 L0.61103421,105.78392 C0.61103421,107.529732 2.15768807,108.872991 3.89078788,108.639933 L38.7858414,103.834713 C40.2138478,103.639792 41.2774372,102.419419 41.2774372,100.982937" id="Fill-16" fill="#3B4049"></path>
                                    <path d="M183.180598,107.00387 L183.180598,163.653776 C183.180598,186.701037 164.502105,205.37953 141.454843,205.37953 L84.0591542,205.37953 C60.4313681,205.37953 41.2782847,186.22221 41.2782847,162.594424 L41.2782847,127.322241 C41.2782847,125.576429 39.7316308,124.228933 38.0027684,124.466228 L3.1034775,129.271448 C1.67547106,129.466369 0.611881692,130.686743 0.611881692,132.127461 L0.611881692,162.594424 C0.611881692,208.680471 37.9731066,246.045934 84.0591542,246.045934 L141.454843,246.045934 C186.960366,246.045934 223.847001,209.155061 223.847001,163.653776 L223.847001,102.202887 C223.847001,100.457075 222.300347,99.1138168 220.567248,99.3468742 L185.672194,104.147857 C184.244188,104.347015 183.180598,105.563152 183.180598,107.00387" id="Fill-18" fill="#F36600"></path>
                                </g>
                            </g>
                        </g>
                    </g>
                </g>
            </g>
        </g>
    </g>
</svg>