<?xml version="1.0" encoding="UTF-8"?>
<svg width="25px" height="24px" viewBox="0 0 25 24" version="1.1" xmlns="http://www.w3.org/2000/svg" xmlns:xlink="http://www.w3.org/1999/xlink">
    <!-- Generator: Sketch 48.2 (47327) - http://www.bohemiancoding.com/sketch -->
    <title>ic_repairing</title>
    <desc>Created with Sketch.</desc>
    <defs>
        <polygon id="path-1" points="0.000190909091 0.0190909091 13.0448182 0.0190909091 13.0448182 13.0639091 0.000190909091 13.0639091"></polygon>
        <polygon id="path-3" points="0.0808818182 0.549309091 6.53121841 0.549309091 6.53121841 7 0.0808818182 7"></polygon>
    </defs>
    <g id="IC-ERP" stroke="none" stroke-width="1" fill="none" fill-rule="evenodd" transform="translate(-1058.000000, -97.000000)">
        <g id="ic_repairing" transform="translate(1057.844710, 97.000000)">
            <g id="Group-23" transform="translate(1.000000, 0.000000)">
                <circle id="Oval-2" fill="#DC8B04" cx="12" cy="12" r="12"></circle>
                <g id="Page-1" transform="translate(5.000000, 5.000000)">
                    <g id="Group-3" transform="translate(0.000000, 0.617527)">
                        <mask id="mask-2" fill="white">
                            <use xlink:href="#path-1"></use>
                        </mask>
                        <g id="Clip-2"></g>
                        <path d="M12.1684182,5.14086364 C12.9447818,4.3645 13.2037818,3.26995455 12.9517818,2.27722727 L11.5562364,3.67340909 L9.69614545,3.36731818 L9.39069091,1.50786364 L10.7862364,0.111681818 C9.79414545,-0.139681818 8.69896364,0.118681818 7.9226,0.895681818 C7.0826,1.73568182 6.84841818,2.94986364 7.21241818,4.00177273 L0.382963636,10.8312273 C-0.1274,11.3422273 -0.1274,12.1701364 0.382963636,12.6811364 C0.893327273,13.1915 1.72123636,13.1915 2.23223636,12.6811364 L9.06169091,5.85104545 C10.1136,6.21568182 11.3284182,5.9815 12.1684182,5.14086364" id="Fill-1" fill="#FFFFFF" mask="url(#mask-2)"></path>
                    </g>
                    <path d="M1.11599091,4.44251818 L3.14408182,5.1177 L4.25453636,6.22751818 L5.14162727,5.34042727 L4.03117273,4.22997273 L3.35662727,2.20251818 C3.32544545,2.12997273 3.26944545,2.07460909 3.19753636,2.04342727 L1.30180909,1.23651818 L0.149990909,2.38833636 L0.957536364,4.28342727 C0.988081818,4.35597273 1.04408182,4.41133636 1.11599091,4.44251818" id="Fill-4" fill="#FFFFFF"></path>
                    <g id="Group-8" transform="translate(6.363636, 6.981164)">
                        <mask id="mask-4" fill="white">
                            <use xlink:href="#path-3"></use>
                        </mask>
                        <g id="Clip-7"></g>
                        <path d="M2.98651818,0.549309091 L0.0808818182,3.45494545 L3.19079091,6.56549091 C3.85642727,7.23112727 5.04579091,7.11976364 5.84824545,6.31730909 C6.6507,5.51485455 6.76206364,4.32549091 6.09706364,3.65985455 L2.98651818,0.549309091 Z" id="Fill-6" fill="#FFFFFF" mask="url(#mask-4)"></path>
                    </g>
                </g>
            </g>
        </g>
    </g>
</svg>