<?xml version="1.0" encoding="UTF-8"?>
<svg width="15px" height="16px" viewBox="0 0 15 16" version="1.1" xmlns="http://www.w3.org/2000/svg" xmlns:xlink="http://www.w3.org/1999/xlink">
    <!-- Generator: Sketch 48.2 (47327) - http://www.bohemiancoding.com/sketch -->
    <title>ic_timer</title>
    <desc>Created with Sketch.</desc>
    <defs></defs>
    <g id="IC-ERP" stroke="none" stroke-width="1" fill="none" fill-rule="evenodd" transform="translate(-843.000000, -255.000000)">
        <g id="ic_timer" transform="translate(842.500000, 255.000000)" fill="#646E83">
            <path d="M10.1428571,0 L5.57142857,0 L5.57142857,1.52380952 L10.1428571,1.52380952 L10.1428571,0 L10.1428571,0 Z M7.0952381,9.9047619 L8.61904762,9.9047619 L8.61904762,5.33333333 L7.0952381,5.33333333 L7.0952381,9.9047619 L7.0952381,9.9047619 Z M13.2133333,4.86857143 L14.2952381,3.78666667 C13.967619,3.39809524 13.6095238,3.03238095 13.2209524,2.71238095 L12.1390476,3.79428571 C10.9580952,2.84952381 9.47238095,2.28571429 7.85714286,2.28571429 C4.07047619,2.28571429 1,5.35619048 1,9.14285714 C1,12.9295238 4.06285714,16 7.85714286,16 C11.6514286,16 14.7142857,12.9295238 14.7142857,9.14285714 C14.7142857,7.52761905 14.1504762,6.04190476 13.2133333,4.86857143 L13.2133333,4.86857143 Z M7.85714286,14.4761905 C4.90857143,14.4761905 2.52380952,12.0914286 2.52380952,9.14285714 C2.52380952,6.19428571 4.90857143,3.80952381 7.85714286,3.80952381 C10.8057143,3.80952381 13.1904762,6.19428571 13.1904762,9.14285714 C13.1904762,12.0914286 10.8057143,14.4761905 7.85714286,14.4761905 L7.85714286,14.4761905 Z" id="Shape"></path>
        </g>
    </g>
</svg>