<?xml version="1.0" encoding="UTF-8"?>
<svg width="37px" height="37px" viewBox="0 0 37 37" version="1.1" xmlns="http://www.w3.org/2000/svg" xmlns:xlink="http://www.w3.org/1999/xlink">
    <!-- Generator: Sketch 51 (57462) - http://www.bohemiancoding.com/sketch -->
    <title>in_pr_in</title>
    <desc>Created with Sketch.</desc>
    <defs></defs>
    <g id="Icon" stroke="none" stroke-width="1" fill="none" fill-rule="evenodd">
        <g id="New-Icon-Agara" transform="translate(-227.000000, -273.000000)">
            <g id="Group-14" transform="translate(229.350000, 276.008731)">
                <g id="ic_today" transform="translate(0.000000, 0.595751)">
                    <g id="Group-5" transform="translate(0.600000, 0.600000)">
                        <polygon id="Fill-1" fill="#717C76" points="20.55996 7.53372 20.55996 15.12372 26.02956 15.12372 15.82476 23.62572 5.62116 15.12372 11.08956 15.12372 11.08956 7.53372 0.00036 7.53372 0.00036 26.89572 31.65036 26.89572 31.65036 7.53372"></polygon>
                        <polygon id="Fill-2" fill="#0099E5" points="12.11004 -0.00036 12.11004 16.14444 8.44044 16.14444 15.82524 22.29804 23.21004 16.14444 19.53924 16.14444 19.53924 -0.00036"></polygon>
                        <polygon id="Fill-3" fill="#717C76" opacity="0.5" points="20.55996 1.63368 20.55996 6.33408 31.65036 6.33408 28.29996 1.63368"></polygon>
                        <polygon id="Fill-4" fill="#717C76" opacity="0.5" points="3.35016 1.63368 -0.00024 6.33408 11.08896 6.33408 11.08896 1.63368"></polygon>
                    </g>
                </g>
            </g>
        </g>
    </g>
</svg>